<svg xmlns="http://www.w3.org/2000/svg" viewBox="0 0 64 64">
  <rect width="64" height="64" rx="16" fill="#f7f3ee"/>
  <path fill="#3e6b5c" d="M12 22 20 9l6 10 6-8 6 8 7-10 4 16c4 5 5 13 2 20l-8 11H22l-9-11c-4-8-4-16-1-23Z"/>
  <path fill="#a8c3b4" d="M18 31c3-8 10-12 14-12s11 4 14 12l-4 14-10 8-10-8-4-14Z"/>
  <path fill="#d3a34a" d="m18 16 3-5 3 9-5 3Zm22 4 3-9 3 5-1 7Z"/>
  <path fill="#f7f3ee" d="M27 36h10l-5 7z"/>
  <circle cx="25" cy="31" r="2.5" fill="#2e2e2e"/>
  <circle cx="39" cy="31" r="2.5" fill="#2e2e2e"/>
</svg>
